<?xml version="1.0" encoding="utf-8"?>
<svg xmlns="http://www.w3.org/2000/svg" viewBox="35.6 78 413.6 106.4" xmlns:bx="https://boxy-svg.com">
  <defs>
    <bx:export>
      <bx:file format="svg"/>
    </bx:export>
  </defs>
  <g id="Layer_1" style="" transform="matrix(0.595051, 0, 0, 0.595051, 125.124184, 62.41991)">
    <g transform="matrix(1, 0, 0, 1, -122.136993, -1.941)">
      <path d="M29.937,33.628l39.415,115.729h0.42l37.314-115.729h52.203v168.344h-34.8V82.686h-0.42L82.766,201.972H54.255 l-41.3-118.025h-0.42v118.241h-34.8V33.628H29.937L29.937,33.628z" style="fill: rgb(130, 130, 130);"/>
      <path d="M314.007,201.972L285.496,87.301h-0.42L256.98,201.972h-37.525L174.802,33.628h37.104l26.626,114.679h0.42l29.142-114.679 h34.59l28.721,115.938h0.42l27.671-115.938h36.271l-45.283,168.344h-36.479H314.007L314.007,201.972z" style="fill: rgb(130, 130, 130);"/>
      <path d="M502.271,200.722c-7.969,3.351-16.148,5.029-24.322,5.029c-12.788,0-24.526-2.305-34.8-6.709 c-10.274-4.404-19.077-10.693-25.996-18.447c-7.124-7.969-12.579-17.196-16.353-27.673c-3.775-10.693-5.66-22.017-5.66-34.385 c0-12.578,1.885-24.316,5.66-35.01c3.772-10.693,9.224-20.127,16.353-28.092c7.129-7.969,15.723-14.258,25.996-18.867 c10.272-4.614,21.802-6.919,34.8-6.919c8.6,0,16.982,1.255,25.162,3.983c8.174,2.726,15.513,6.495,22.012,11.529 c6.499,5.029,11.948,11.323,16.144,18.657c4.188,7.339,6.919,15.933,7.754,25.366h-35.431c-2.305-9.434-6.5-16.563-12.788-21.172 c-6.289-4.613-13.832-7.129-22.853-7.129c-8.384,0-15.513,1.675-21.172,4.819c-5.869,3.145-10.483,7.549-14.258,12.998 c-3.561,5.449-6.289,11.534-7.964,18.448c-1.681,6.924-2.516,14.048-2.516,21.387c0,7.129,0.835,14.048,2.516,20.547 c1.675,6.709,4.188,12.789,7.964,18.028c3.568,5.242,8.389,9.646,14.258,12.791c5.869,3.145,12.788,4.823,21.172,4.823 c12.373,0,21.807-3.145,28.516-9.229c6.705-6.077,10.484-15.096,11.738-27.044h-37.314v-27.461h70.649v90.979h-23.48l-3.774-19.071 C517.573,191.493,510.233,197.362,502.271,200.722z" style="fill: rgb(130, 130, 130);"/>
      <path d="M665.372,29.648l-65.83,176.103H572.92l65.616-176.103H665.372L665.372,29.648z" fill="#00A1C6"/>
      <rect height="46.483" width="700.006" fill="none" y="237.49" x="-22.266"/>
      <g/>
    </g>
  </g>
</svg>